Title                            : Drive
Year                             : 2011
Genre                            : Crime | Drama | Thriller
iMDB URL                         : http://www.imdb.com/title/tt0780504/

Complete name                    : Drive.2011.BRRIP.720P.H264-ZEKTORM.mp4
Format                           : MPEG-4
Format profile                   : Base Media
Codec ID                         : isom
File size                        : 2.15 GiB
Duration                         : 1h 40mn
Overall bit rate                 : 3063 Kbps
Subtitles                        : English (Format: srt)

Video
ID                               : 1
Format                           : AVC
Format/Info                      : Advanced Video Codec
Format profile                   : High@L4.0
Format settings, CABAC           : Yes
Format settings, ReFrames        : 5 frames
Codec ID                         : avc1
Codec ID/Info                    : Advanced Video Coding
Duration                         : 1h 40mn
Bit rate mode                    : Variable
Bit rate                         : 2866 Kbps
Width                            : 1280 pixels
Height                           : 528 pixels
Display aspect ratio             : 2.424
Frame rate mode                  : Constant
Frame rate                       : 23.976 fps
Resolution                       : 24 bits
Colorimetry                      : 4:2:0
Scan type                        : Progressive
Bits/(Pixel*Frame)               : 0.177
Stream size                      : 2.01 GiB (94%)
Title                            : Video
Writing library                  : x264

Audio
ID                               : 2
Format                           : AAC
Format/Info                      : Advanced Audio Codec
Format version                   : Version 4
Format profile                   : LC
Format settings, SBR             : Yes
Format settings, PS              : No
Codec ID                         : 40
Duration                         : 1h 40mn
Bit rate mode                    : Variable
Bit rate                         : 192 Kbps
Maximum bit rate                 : 284 Kbps
Channel(s)                       : 6 channels
Channel positions                : Front: L C R, Rear: L R, LFE
Sampling rate                    : 48.0 KHz
Resolution                       : 16 bits
Stream size                      : 139 MiB (6%)
Language                         : English


Screenshots:

[img]http://img829.imageshack.us/img829/7728/snapd1.png[/img]

[img]http://img837.imageshack.us/img837/3991/snapd2.png[/img]

[img]http://img593.imageshack.us/img593/5337/snapd3.png[/img]
